<?xml version="1.0" encoding="utf-8"?><!-- Uploaded to: SVG Repo, www.svgrepo.com, Generator: SVG Repo Mixer Tools -->
<svg fill="#000000" width="800px" height="800px" viewBox="0 0 24 24" id="list-square" data-name="Flat Color" xmlns="http://www.w3.org/2000/svg" class="icon flat-color"><rect id="primary" x="2" y="2" width="20" height="20" rx="2" style="fill: rgb(0, 0, 0);"></rect><path id="secondary" d="M18,17H11a1,1,0,0,1,0-2h7a1,1,0,0,1,0,2Zm0-4H11a1,1,0,0,1,0-2h7a1,1,0,0,1,0,2Zm0-4H11a1,1,0,0,1,0-2h7a1,1,0,0,1,0,2ZM6.5,6.5A1.5,1.5,0,1,0,8,8,1.5,1.5,0,0,0,6.5,6.5Zm0,4A1.5,1.5,0,1,0,8,12,1.5,1.5,0,0,0,6.5,10.5Zm0,4A1.5,1.5,0,1,0,8,16,1.5,1.5,0,0,0,6.5,14.5Z" style="fill: rgb(44, 169, 188);"></path></svg>